<?xml version="1.0" encoding="UTF-8" standalone="no"?>
<!DOCTYPE svg PUBLIC "-//W3C//DTD SVG 1.1//EN" "http://www.w3.org/Graphics/SVG/1.1/DTD/svg11.dtd">
<svg width="100%" height="100%" viewBox="0 0 82 60" version="1.1" xmlns="http://www.w3.org/2000/svg" xmlns:xlink="http://www.w3.org/1999/xlink" xml:space="preserve" xmlns:serif="http://www.serif.com/" style="fill-rule:evenodd;clip-rule:evenodd;stroke-linejoin:round;stroke-miterlimit:2;">
    <g>
        <g>
            <rect x="0" y="0" width="82" height="60" style="fill:none;"/>
            <g>
                <g>
                    <rect id="path-1" x="0" y="0" width="82" height="60" style="fill:rgb(121,209,242);"/>
                    <g id="Sun" transform="matrix(2.0231,0.00034643,-0.000334329,2.09633,-90.6403,-1.37667)">
                        <circle cx="65.5" cy="11.5" r="7.5" style="fill:rgb(243,236,96);"/>
                    </g>
                    <g id="Cloud" transform="matrix(1.70488,0,0,1.76659,-9.48615,-27.8004)">
                        <ellipse cx="23.759" cy="40.085" rx="4.721" ry="3.306" style="fill:rgb(235,235,235);"/>
                        <ellipse cx="28.78" cy="39.321" rx="3.571" ry="4.157" style="fill:rgb(235,235,235);"/>
                        <ellipse cx="22.167" cy="37.028" rx="5.013" ry="4.74" style="fill:rgb(235,235,235);"/>
                        <ellipse cx="16.472" cy="39.108" rx="5.017" ry="4.517" style="fill:rgb(235,235,235);"/>
                    </g>
                    <g id="Cloud1" serif:id="Cloud" transform="matrix(1.43535,0,0,1.4873,27.1019,-19.8859)">
                        <ellipse cx="23.759" cy="40.085" rx="4.721" ry="3.306" style="fill:rgb(235,235,235);"/>
                        <ellipse cx="28.78" cy="39.321" rx="3.571" ry="4.157" style="fill:rgb(235,235,235);"/>
                        <ellipse cx="22.167" cy="37.028" rx="5.013" ry="4.74" style="fill:rgb(235,235,235);"/>
                        <ellipse cx="16.472" cy="39.108" rx="5.017" ry="4.517" style="fill:rgb(235,235,235);"/>
                    </g>
                </g>
            </g>
            <g id="clock-regular--1-.svg" serif:id="clock-regular (1).svg" transform="matrix(0.0317648,0,0,0.0317648,67.1961,13.0226)">
                <g transform="matrix(1,0,0,1,-256,-256)">
                    <path d="M464,256C464,370.105 370.105,464 256,464C141.895,464 48,370.105 48,256C48,141.895 141.895,48 256,48C370.105,48 464,141.895 464,256ZM0,256C0,396.437 115.563,512 256,512C396.437,512 512,396.437 512,256C512,115.563 396.437,0 256,0C115.563,-0 0,115.563 0,256ZM232,120L232,256C232,264 236,271.5 242.7,276L338.7,340C349.7,347.4 364.6,344.4 372,333.3C379.4,322.2 376.4,307.4 365.3,300L280,243.2L280,120C280,106.7 269.3,96 256,96C242.7,96 232,106.7 232,120Z" style="fill:rgb(255,0,0);fill-rule:nonzero;"/>
                    <clipPath id="_clip1">
                        <path d="M464,256C464,370.105 370.105,464 256,464C141.895,464 48,370.105 48,256C48,141.895 141.895,48 256,48C370.105,48 464,141.895 464,256ZM0,256C0,396.437 115.563,512 256,512C396.437,512 512,396.437 512,256C512,115.563 396.437,0 256,0C115.563,-0 0,115.563 0,256ZM232,120L232,256C232,264 236,271.5 242.7,276L338.7,340C349.7,347.4 364.6,344.4 372,333.3C379.4,322.2 376.4,307.4 365.3,300L280,243.2L280,120C280,106.7 269.3,96 256,96C242.7,96 232,106.7 232,120Z" clip-rule="nonzero"/>
                    </clipPath>
                    <g clip-path="url(#_clip1)">
                        <path d="M0,256C0,115.563 115.563,-0 256,0C396.437,0 512,115.563 512,256C512,396.437 396.437,512 256,512C115.563,512 0,396.437 0,256ZM464,256C464,141.895 370.105,48 256,48C141.895,48 48,141.895 48,256C48,370.105 141.895,464 256,464C370.105,464 464,370.105 464,256Z" style="fill:white;"/>
                        <path d="M232,120C232,106.7 242.7,96 256,96C269.3,96 280,106.7 280,120L280,243.2L365.3,300C376.4,307.4 379.4,322.2 372,333.3C364.6,344.4 349.7,347.4 338.7,340L242.7,276C236,271.5 232,264 232,256L232,120Z" style="fill:white;"/>
                    </g>
                </g>
            </g>
        </g>
    </g>
</svg>
